<svg width="16" height="16" viewBox="0 0 16 16" fill="none" xmlns="http://www.w3.org/2000/svg">
<g id="Group">
<path id="Vector" d="M11.8244 0H4.1561C1.87317 0 0 1.81384 0 4.06683V11.9332C0 14.1671 1.85366 16 4.1561 16H11.8439C14.1268 16 16 14.1862 16 11.9332V4.04773C15.9805 1.81384 14.1268 0 11.8244 0ZM13.2098 13.2888H10.2049C10.1854 13.2888 10.1659 13.2888 10.1659 13.2697L7.3561 9.27924H7.33658C6.20488 10.5585 5.09268 11.8186 4 13.0597C3.94146 13.136 3.86341 13.1933 3.80488 13.2506C3.78537 13.2697 3.76585 13.2697 3.74634 13.2697H2.92683C2.90732 13.2697 2.8878 13.2697 2.90732 13.2506L6.90732 8.70644C6.92683 8.68735 6.92683 8.66826 6.90732 8.64916L2.92683 2.97852V2.95943H5.95122C5.97073 2.95943 5.97073 2.95943 5.99024 2.97852L8.6439 6.73986C8.6439 6.73986 8.6439 6.73986 8.66341 6.73986L11.961 2.97852C11.9805 2.95943 12 2.95943 12.0195 2.95943H12.839C12.878 2.95943 12.878 2.97852 12.8585 2.99761L9.07317 7.29356C9.05366 7.31265 9.05366 7.33174 9.07317 7.35084L13.2293 13.2697C13.2293 13.2697 13.2293 13.2888 13.2098 13.2888Z" fill="white"/>
<path id="Vector_2" d="M5.59999 3.64677H4.29268C4.27316 3.64677 4.27316 3.66587 4.27316 3.68496L10.5561 12.6014C10.5561 12.6014 10.5561 12.6014 10.5756 12.6014H11.8634C11.8829 12.6014 11.8829 12.5823 11.8829 12.5632L5.59999 3.64677Z" fill="white"/>
</g>
</svg>
